<!DOCTYPE svg PUBLIC "-//W3C//DTD SVG 1.1//EN" "http://www.w3.org/Graphics/SVG/1.1/DTD/svg11.dtd">

<!-- Uploaded to: SVG Repo, www.svgrepo.com, Transformed by: SVG Repo Mixer Tools -->
<svg version="1.1" id="Capa_1" xmlns="http://www.w3.org/2000/svg" xmlns:xlink="http://www.w3.org/1999/xlink" viewBox="0 0 442.73 442.73" xml:space="preserve" width="20px" height="20px" fill="#000000" transform="matrix(-1, 0, 0, 1, 0, 0)">

<g id="SVGRepo_bgCarrier" stroke-width="0"/>

<g id="SVGRepo_tracerCarrier" stroke-linecap="round" stroke-linejoin="round"/>

<g id="SVGRepo_iconCarrier"> <g id="XMLID_9_"> <g> <polygon style="fill:#6A7075;" points="417.35,399.115 430.55,428.035 422.68,431.005 382.04,412.455 "/> <polygon style="fill:#FFCC73;" points="378.13,313.155 413.61,390.905 370.51,407.195 311.17,380.115 "/> <rect x="45.639" y="91.367" transform="matrix(0.7072 -0.7071 0.7071 0.7072 -40.7449 95.5431)" style="fill:#A7B6C4;" width="98.663" height="11.186"/> <rect x="31.367" y="77.087" transform="matrix(0.7071 -0.7071 0.7071 0.7071 -34.8286 81.2764)" style="fill:#A7B6C4;" width="98.656" height="11.186"/> <path style="fill:#F97946;" d="M105.26,37.485l-69.76,69.76l-20.9-20.89c-3.61-3.61-5.6-8.42-5.6-13.53s1.99-9.91,5.61-13.53 l42.71-42.71c3.61-3.61,8.41-5.6,13.52-5.6c5.11,0,9.91,1.99,13.52,5.6L105.26,37.485z"/> <polygon style="fill:#60A57C;" points="315.24,363.315 303.4,375.155 70.41,142.155 82.25,130.325 "/> <polygon style="fill:#60A57C;" points="373.17,305.385 361.33,317.235 128.33,84.235 140.17,72.395 "/> <polygon style="fill:#000;" points="121.97,90.595 354.96,323.595 321.61,356.955 88.61,123.955 "/> <path d="M383.29,302.775l59.44,130.28l-20.38,7.69l-121.55-55.47L8.24,92.725C2.92,87.405,0,80.345,0,72.825 c0-7.51,2.92-14.58,8.24-19.89l42.71-42.71c5.31-5.31,12.38-8.24,19.89-8.24c7.51,0,14.57,2.93,19.89,8.24L383.29,302.775z M430.55,428.035l-13.2-28.92l-35.31,13.34l40.64,18.55L430.55,428.035z M413.61,390.905l-35.48-77.75l-66.96,66.96l59.34,27.08 L413.61,390.905z M361.33,317.235l11.84-11.85l-233-232.99l-11.84,11.84L361.33,317.235z M354.96,323.595l-232.99-233 l-33.36,33.36l233,233L354.96,323.595z M303.4,375.155l11.84-11.84L82.25,130.325l-11.84,11.83L303.4,375.155z M64.04,135.795 l69.77-69.76l-7.91-7.91l-69.77,69.76L64.04,135.795z M49.77,121.515l69.76-69.76l-7.91-7.91l-69.76,69.76L49.77,121.515z M35.5,107.245l69.76-69.76l-20.9-20.9c-3.61-3.61-8.41-5.6-13.52-5.6c-5.11,0-9.91,1.99-13.52,5.6l-42.71,42.71 C10.99,62.915,9,67.715,9,72.825s1.99,9.92,5.6,13.53L35.5,107.245z"/> </g> </g> </g>

</svg>